<svg width="250" height="150" viewBox="0 0 175 75" fill="none" xmlns="http://www.w3.org/2000/svg">
<g clip-path="url(#clip0_3_585)">
<path d="M53.4211 59.5885C39.6358 67.5474 12.8242 70.5409 3.55558 54.4872C-4.54937 40.449 10.996 16.3003 24.0705 8.75174C35.7036 2.03535 54.3143 6.46409 62.4192 20.5023C70.5242 34.5405 66.4956 52.04 53.4211 59.5885Z" fill="#C1DDFE"/>
<path d="M43.8238 51.192C42.1598 51.192 40.5598 50.9253 39.0238 50.392C37.5091 49.8373 36.3358 49.1333 35.5038 48.28L36.4318 46.456C37.2211 47.224 38.2771 47.8747 39.5998 48.408C40.9438 48.92 42.3518 49.176 43.8238 49.176C45.2318 49.176 46.3731 49.0053 47.2478 48.664C48.1438 48.3013 48.7944 47.8213 49.1998 47.224C49.6264 46.6267 49.8398 45.9653 49.8398 45.24C49.8398 44.3653 49.5838 43.6613 49.0718 43.128C48.5811 42.5947 47.9304 42.1787 47.1198 41.88C46.3091 41.56 45.4131 41.2827 44.4318 41.048C43.4504 40.8133 42.4691 40.568 41.4878 40.312C40.5064 40.0347 39.5998 39.672 38.7678 39.224C37.9571 38.776 37.2958 38.1893 36.7838 37.464C36.2931 36.7173 36.0478 35.7467 36.0478 34.552C36.0478 33.4427 36.3358 32.4293 36.9118 31.512C37.5091 30.5733 38.4158 29.8267 39.6318 29.272C40.8478 28.696 42.4051 28.408 44.3038 28.408C45.5624 28.408 46.8104 28.5893 48.0478 28.952C49.2851 29.2933 50.3518 29.7733 51.2478 30.392L50.4478 32.28C49.4878 31.64 48.4638 31.1707 47.3758 30.872C46.3091 30.5733 45.2744 30.424 44.2718 30.424C42.9278 30.424 41.8184 30.6053 40.9438 30.968C40.0691 31.3307 39.4184 31.8213 38.9918 32.44C38.5864 33.0373 38.3838 33.72 38.3838 34.488C38.3838 35.3627 38.6291 36.0667 39.1198 36.6C39.6318 37.1333 40.2931 37.5493 41.1038 37.848C41.9358 38.1467 42.8424 38.4133 43.8238 38.648C44.8051 38.8827 45.7758 39.1387 46.7358 39.416C47.7171 39.6933 48.6131 40.056 49.4238 40.504C50.2558 40.9307 50.9171 41.5067 51.4078 42.232C51.9198 42.9573 52.1758 43.9067 52.1758 45.08C52.1758 46.168 51.8771 47.1813 51.2798 48.12C50.6824 49.0373 49.7651 49.784 48.5278 50.36C47.3118 50.9147 45.7438 51.192 43.8238 51.192ZM67.3833 51V47.288L67.2873 46.68V40.472C67.2873 39.0427 66.8819 37.944 66.0713 37.176C65.2819 36.408 64.0979 36.024 62.5193 36.024C61.4313 36.024 60.3966 36.2053 59.4153 36.568C58.4339 36.9307 57.6019 37.4107 56.9193 38.008L55.8953 36.312C56.7486 35.5867 57.7726 35.032 58.9673 34.648C60.1619 34.2427 61.4206 34.04 62.7433 34.04C64.9193 34.04 66.5939 34.584 67.7673 35.672C68.9619 36.7387 69.5593 38.3707 69.5593 40.568V51H67.3833ZM61.5913 51.16C60.3326 51.16 59.2339 50.9573 58.2953 50.552C57.3779 50.1253 56.6739 49.5493 56.1833 48.824C55.6926 48.0773 55.4473 47.224 55.4473 46.264C55.4473 45.3893 55.6499 44.6 56.0553 43.896C56.4819 43.1707 57.1646 42.5947 58.1033 42.168C59.0633 41.72 60.3433 41.496 61.9433 41.496H67.7353V43.192H62.0073C60.3859 43.192 59.2553 43.48 58.6153 44.056C57.9966 44.632 57.6873 45.3467 57.6873 46.2C57.6873 47.16 58.0606 47.928 58.8073 48.504C59.5539 49.08 60.5993 49.368 61.9433 49.368C63.2233 49.368 64.3219 49.08 65.2393 48.504C66.1779 47.9067 66.8606 47.0533 67.2873 45.944L67.7993 47.512C67.3726 48.6213 66.6259 49.5067 65.5593 50.168C64.5139 50.8293 63.1913 51.16 61.5913 51.16ZM76.1143 51V32.088C76.1143 30.5947 76.5516 29.3893 77.4263 28.472C78.3009 27.5547 79.5596 27.096 81.2023 27.096C81.8423 27.096 82.4609 27.1813 83.0583 27.352C83.6556 27.5227 84.1569 27.7893 84.5623 28.152L83.7943 29.848C83.4743 29.5707 83.1009 29.368 82.6743 29.24C82.2476 29.0907 81.7889 29.016 81.2983 29.016C80.3383 29.016 79.6023 29.2827 79.0903 29.816C78.5783 30.3493 78.3223 31.1387 78.3223 32.184V34.744L78.3863 35.8V51H76.1143ZM73.1063 36.088V34.2H83.5063V36.088H73.1063ZM93.4288 51.16C91.6794 51.16 90.1434 50.7973 88.8208 50.072C87.4981 49.3253 86.4634 48.312 85.7168 47.032C84.9701 45.7307 84.5968 44.248 84.5968 42.584C84.5968 40.92 84.9488 39.448 85.6528 38.168C86.3781 36.888 87.3594 35.8853 88.5968 35.16C89.8554 34.4133 91.2634 34.04 92.8208 34.04C94.3994 34.04 95.7968 34.4027 97.0128 35.128C98.2501 35.832 99.2208 36.8347 99.9248 38.136C100.629 39.416 100.981 40.8987 100.981 42.584C100.981 42.6907 100.97 42.808 100.949 42.936C100.949 43.0427 100.949 43.16 100.949 43.288H86.3248V41.592H99.7328L98.8368 42.264C98.8368 41.048 98.5701 39.9707 98.0368 39.032C97.5248 38.072 96.8208 37.3253 95.9248 36.792C95.0288 36.2587 93.9941 35.992 92.8208 35.992C91.6688 35.992 90.6341 36.2587 89.7168 36.792C88.7994 37.3253 88.0848 38.072 87.5728 39.032C87.0608 39.992 86.8048 41.0907 86.8048 42.328V42.68C86.8048 43.96 87.0821 45.0907 87.6368 46.072C88.2128 47.032 89.0021 47.7893 90.0048 48.344C91.0288 48.8773 92.1914 49.144 93.4928 49.144C94.5168 49.144 95.4661 48.9627 96.3408 48.6C97.2368 48.2373 98.0048 47.6827 98.6448 46.936L99.9248 48.408C99.1781 49.304 98.2394 49.9867 97.1088 50.456C95.9994 50.9253 94.7728 51.16 93.4288 51.16ZM112.261 51.192C110.597 51.192 108.997 50.9253 107.461 50.392C105.947 49.8373 104.773 49.1333 103.941 48.28L104.869 46.456C105.659 47.224 106.715 47.8747 108.037 48.408C109.381 48.92 110.789 49.176 112.261 49.176C113.669 49.176 114.811 49.0053 115.685 48.664C116.581 48.3013 117.232 47.8213 117.637 47.224C118.064 46.6267 118.277 45.9653 118.277 45.24C118.277 44.3653 118.021 43.6613 117.509 43.128C117.019 42.5947 116.368 42.1787 115.557 41.88C114.747 41.56 113.851 41.2827 112.869 41.048C111.888 40.8133 110.907 40.568 109.925 40.312C108.944 40.0347 108.037 39.672 107.205 39.224C106.395 38.776 105.733 38.1893 105.221 37.464C104.731 36.7173 104.485 35.7467 104.485 34.552C104.485 33.4427 104.773 32.4293 105.349 31.512C105.947 30.5733 106.853 29.8267 108.069 29.272C109.285 28.696 110.843 28.408 112.741 28.408C114 28.408 115.248 28.5893 116.485 28.952C117.723 29.2933 118.789 29.7733 119.685 30.392L118.885 32.28C117.925 31.64 116.901 31.1707 115.813 30.872C114.747 30.5733 113.712 30.424 112.709 30.424C111.365 30.424 110.256 30.6053 109.381 30.968C108.507 31.3307 107.856 31.8213 107.429 32.44C107.024 33.0373 106.821 33.72 106.821 34.488C106.821 35.3627 107.067 36.0667 107.557 36.6C108.069 37.1333 108.731 37.5493 109.541 37.848C110.373 38.1467 111.28 38.4133 112.261 38.648C113.243 38.8827 114.213 39.1387 115.173 39.416C116.155 39.6933 117.051 40.056 117.861 40.504C118.693 40.9307 119.355 41.5067 119.845 42.232C120.357 42.9573 120.613 43.9067 120.613 45.08C120.613 46.168 120.315 47.1813 119.717 48.12C119.12 49.0373 118.203 49.784 116.965 50.36C115.749 50.9147 114.181 51.192 112.261 51.192ZM133.965 51.16C132.514 51.16 131.202 50.8293 130.029 50.168C128.855 49.4853 127.917 48.5147 127.213 47.256C126.53 45.976 126.189 44.4187 126.189 42.584C126.189 40.7493 126.53 39.2027 127.213 37.944C127.895 36.664 128.823 35.6933 129.997 35.032C131.17 34.3707 132.493 34.04 133.965 34.04C135.565 34.04 136.994 34.4027 138.253 35.128C139.533 35.832 140.535 36.8347 141.261 38.136C141.986 39.416 142.349 40.8987 142.349 42.584C142.349 44.2907 141.986 45.784 141.261 47.064C140.535 48.344 139.533 49.3467 138.253 50.072C136.994 50.7973 135.565 51.16 133.965 51.16ZM125.293 57.208V34.2H127.469V39.256L127.245 42.616L127.565 46.008V57.208H125.293ZM133.805 49.144C134.999 49.144 136.066 48.8773 137.005 48.344C137.943 47.7893 138.69 47.0213 139.245 46.04C139.799 45.0373 140.077 43.8853 140.077 42.584C140.077 41.2827 139.799 40.1413 139.245 39.16C138.69 38.1787 137.943 37.4107 137.005 36.856C136.066 36.3013 134.999 36.024 133.805 36.024C132.61 36.024 131.533 36.3013 130.573 36.856C129.634 37.4107 128.887 38.1787 128.333 39.16C127.799 40.1413 127.533 41.2827 127.533 42.584C127.533 43.8853 127.799 45.0373 128.333 46.04C128.887 47.0213 129.634 47.7893 130.573 48.344C131.533 48.8773 132.61 49.144 133.805 49.144ZM153.828 51.16C152.207 51.16 150.746 50.7973 149.444 50.072C148.164 49.3253 147.151 48.312 146.404 47.032C145.658 45.7307 145.284 44.248 145.284 42.584C145.284 40.8987 145.658 39.416 146.404 38.136C147.151 36.856 148.164 35.8533 149.444 35.128C150.724 34.4027 152.186 34.04 153.828 34.04C155.492 34.04 156.964 34.4027 158.244 35.128C159.546 35.8533 160.559 36.856 161.284 38.136C162.031 39.416 162.404 40.8987 162.404 42.584C162.404 44.248 162.031 45.7307 161.284 47.032C160.559 48.312 159.546 49.3253 158.244 50.072C156.943 50.7973 155.471 51.16 153.828 51.16ZM153.828 49.144C155.044 49.144 156.122 48.8773 157.06 48.344C157.999 47.7893 158.735 47.0213 159.268 46.04C159.823 45.0373 160.1 43.8853 160.1 42.584C160.1 41.2613 159.823 40.1093 159.268 39.128C158.735 38.1467 157.999 37.3893 157.06 36.856C156.122 36.3013 155.055 36.024 153.86 36.024C152.666 36.024 151.599 36.3013 150.66 36.856C149.722 37.3893 148.975 38.1467 148.42 39.128C147.866 40.1093 147.588 41.2613 147.588 42.584C147.588 43.8853 147.866 45.0373 148.42 46.04C148.975 47.0213 149.722 47.7893 150.66 48.344C151.599 48.8773 152.655 49.144 153.828 49.144ZM172.355 51.16C170.776 51.16 169.56 50.7333 168.707 49.88C167.853 49.0267 167.427 47.8213 167.427 46.264V30.488H169.699V46.136C169.699 47.1173 169.944 47.8747 170.435 48.408C170.947 48.9413 171.672 49.208 172.611 49.208C173.613 49.208 174.445 48.92 175.107 48.344L175.907 49.976C175.459 50.3813 174.915 50.68 174.275 50.872C173.656 51.064 173.016 51.16 172.355 51.16ZM164.419 36.088V34.2H174.819V36.088H164.419Z" fill="black"/>
<circle cx="190" cy="60" r="10" fill="#C1DDFE"/>
</g>
<defs>
<clipPath id="clip0_3_585">
<rect width="250" height="150" fill="white"/>
</clipPath>
</defs>
</svg>
